<svg width="24" height="24" viewBox="0 0 24 24" fill="none" xmlns="http://www.w3.org/2000/svg">
<path d="M23.9917 6.51725L23.5135 4.08802V4.08691L22.785 0.390554C22.7514 0.217119 22.6121 0.0748442 22.4243 0.0219774C22.2365 -0.0312598 22.0315 0.0140011 21.892 0.138467L6.62971 13.7956L5.26364 12.5734C5.16476 12.4849 5.03044 12.4348 4.8903 12.4348C4.75038 12.4348 4.61563 12.4849 4.51675 12.5734L2.31736 14.5415C2.1111 14.726 2.1111 15.0249 2.31736 15.2098L4.66003 17.3061L0.154694 21.338C-0.0515645 21.5226 -0.0515645 21.8218 0.154694 22.0063L2.22746 23.8614C2.32635 23.9499 2.46108 24 2.60101 24C2.74094 24 2.87527 23.9499 2.97436 23.8614L4.37715 22.6062C4.37715 22.6062 4.37798 22.6062 4.37798 22.6054L7.48058 19.8291L9.82325 21.9259C9.92213 22.0144 10.0565 22.0645 10.1966 22.0645C10.3365 22.0645 10.4708 22.0144 10.5699 21.9259L12.7698 19.9571C12.976 19.7733 12.976 19.4743 12.7698 19.2894L11.4037 18.0671L23.8459 6.93343C23.9676 6.82436 24.0219 6.66911 23.9919 6.51737L23.9917 6.51725ZM21.9216 1.44758L22.4276 4.0167L9.06466 15.9743L7.37647 14.4637L21.9216 1.44758ZM2.60074 22.8598L1.27383 21.6724L1.93033 21.0848L3.25724 22.2721L2.60074 22.8598ZM6.73317 19.1615L4.00348 21.6042L2.67593 20.4168L5.406 17.9742L6.06892 18.5674L6.73317 19.1615ZM10.1958 20.9245L7.42825 18.448L5.77986 16.9726L3.43661 14.8757L4.8904 13.575L11.6496 19.6234L10.1958 20.9245ZM10.6562 17.399L9.81109 16.6427L22.6508 5.15286L22.9045 6.43946L10.6562 17.399Z" fill="currentColor" fill-opacity="0.87"/>
</svg>
