<svg width="24" height="24" viewBox="0 0 24 24" fill="none" xmlns="http://www.w3.org/2000/svg">
<path d="M17.3335 10.5165C16.2669 10.5165 15.2801 10.7591 14.4001 11.2175V10.2468C14.4001 10.031 14.3735 9.81526 14.3201 9.59953C15.2801 8.95231 15.8934 8.17035 16.0001 7.28049V7.28068V4.04485C16.0001 1.8067 12.7734 0 8.8001 0C4.8267 0 1.60007 1.8067 1.60007 4.04485V7.01116C1.60007 7.22691 1.62667 7.44266 1.68005 7.65839C0.613479 8.35945 0 9.27642 0 10.2472V13.2135C0 14.0225 0.399925 14.7506 1.12 15.3708C0.746679 15.8561 0.533335 16.3955 0.533335 16.9888V19.9552C0.533335 22.1933 3.76011 24 7.73336 24C9.94671 24 11.9201 23.4336 13.2267 22.5708C14.3467 23.4607 15.7868 24 17.3333 24C21.0134 24 24 20.9799 24 17.2586C24.0002 13.5369 21.0136 10.5167 17.3333 10.5167L17.3335 10.5165ZM17.3335 22.3813C16.2401 22.3813 15.2535 22.0307 14.4269 21.4374C14.2135 21.2757 14.0002 21.1139 13.8136 20.9251C13.6002 20.7362 13.4137 20.5206 13.2535 20.2778C13.2001 20.1969 13.1201 20.089 13.0667 20.0081L12.9334 19.7654C12.8 19.5228 12.6934 19.2802 12.5866 19.0373C12.56 18.9564 12.5332 18.8756 12.5066 18.7947C12.48 18.7138 12.4533 18.6329 12.4267 18.552C12.4001 18.4443 12.3733 18.3363 12.3467 18.2285C12.2935 17.9319 12.2669 17.5814 12.2669 17.2577C12.2669 17.1229 12.2669 16.9611 12.2935 16.8262C12.3201 16.5296 12.3735 16.2599 12.4268 15.9904C12.4268 15.9364 12.4534 15.8826 12.4802 15.8015C12.5602 15.5318 12.667 15.2622 12.7736 15.0196C12.8802 14.8039 12.9869 14.5881 13.1203 14.3994C13.1469 14.3725 13.1469 14.3455 13.1737 14.3186C13.2271 14.2377 13.2803 14.1568 13.3337 14.1028C13.5204 13.8871 13.707 13.6713 13.9203 13.4826C14.0803 13.3478 14.2403 13.2129 14.4002 13.0782C15.2268 12.485 16.2403 12.1343 17.3337 12.1343C20.1337 12.1343 22.4004 14.4265 22.4004 17.2578C22.4002 20.0893 20.1336 22.3813 17.3337 22.3813L17.3335 22.3813ZM2.53344 9.00638C2.80018 9.27612 3.12011 9.51878 3.49344 9.73451C3.81339 9.95025 4.18673 10.112 4.58683 10.2738C5.12012 10.4895 5.7334 10.6782 6.3735 10.813C7.12017 10.9748 7.94679 11.0557 8.80023 11.0557C9.04018 11.0557 9.28013 11.0557 9.52028 11.0288C10.1603 11.0019 10.7736 10.921 11.3603 10.7861C11.7603 10.7053 12.1604 10.5973 12.5069 10.4626C12.6135 10.4357 12.6937 10.4086 12.8003 10.3548C12.8003 10.4357 12.7469 10.5166 12.7203 10.5706C12.6137 10.7863 12.4535 10.975 12.2135 11.1907C12.0002 11.3525 11.7602 11.5413 11.4669 11.7031C10.4803 12.2424 9.01354 12.647 7.22691 12.647C5.44009 12.6468 3.94675 12.2693 2.96013 11.7299C2.66679 11.5681 2.42684 11.4063 2.21346 11.2175C1.9735 11.0017 1.78675 10.786 1.70674 10.5973C1.65336 10.4624 1.60016 10.3547 1.60016 10.2467C1.60016 9.86937 1.94674 9.41082 2.53344 9.00638ZM8.80013 1.6178C12.1601 1.6178 14.4002 3.07385 14.4002 4.04461C14.4002 4.15239 14.3736 4.28726 14.2936 4.39522C14.187 4.61097 14.0268 4.79963 13.7869 5.01538C13.5735 5.17715 13.3335 5.36599 13.0402 5.52778C12.2136 5.95927 11.0402 6.3368 9.62683 6.44456C9.36009 6.47146 9.09355 6.47146 8.80021 6.47146C7.94678 6.47146 7.17354 6.36368 6.48025 6.22881C5.7332 6.04015 5.06653 5.79751 4.56005 5.52795C4.26671 5.36618 4.02676 5.20442 3.81338 5.01555C3.57342 4.7998 3.38667 4.58406 3.30667 4.39539C3.25328 4.26052 3.20008 4.15274 3.20008 4.04478C3.19989 3.07402 5.43988 1.6178 8.80013 1.6178ZM4.53335 7.30755C4.55995 7.30755 4.55995 7.33445 4.58674 7.33445C4.74671 7.38843 4.90668 7.46931 5.06664 7.5233V8.76381C4.87989 8.68293 4.69332 8.60205 4.53336 8.49408L4.53335 7.30755ZM6.13345 9.08733V7.79303C6.21344 7.81993 6.29343 7.81993 6.37341 7.84701C6.48 7.87391 6.58677 7.87391 6.66676 7.901V9.22236C6.61337 9.22236 6.53338 9.19546 6.48 9.19546C6.37341 9.16819 6.24003 9.14131 6.13345 9.08733ZM8.26684 9.43794C8.08009 9.43794 7.92012 9.41104 7.73356 9.41104V8.06276C7.92031 8.08966 8.08028 8.08966 8.26684 8.08966V9.43794ZM9.33342 9.43794V8.08966H9.52018C9.62676 8.08966 9.76013 8.08966 9.8669 8.06276V9.41104C9.78691 9.41104 9.70693 9.43794 9.62694 9.43794C9.54677 9.41086 9.44 9.41086 9.33342 9.43794ZM10.9335 7.9008C11.0669 7.87391 11.2003 7.84682 11.3334 7.81992C11.3868 7.81992 11.4134 7.79302 11.4668 7.79302V9.08733C11.3068 9.14131 11.1201 9.16821 10.9335 9.22219L10.9335 7.9008ZM13.0667 8.46718C12.9601 8.52116 12.8534 8.57496 12.72 8.62894C12.6666 8.65584 12.5866 8.68293 12.5332 8.70983V7.46931C12.72 7.41533 12.9066 7.33444 13.0665 7.25356L13.0667 8.46718ZM14.1335 6.76829C14.1869 6.7414 14.2401 6.68741 14.2935 6.66051C14.3468 6.79538 14.4 6.90316 14.4 7.01113C14.4 7.19998 14.3201 7.41553 14.1333 7.63129L14.1335 6.76829ZM3.20011 6.87626C3.20011 6.79538 3.25349 6.7145 3.28009 6.63362C3.33348 6.6876 3.38668 6.7145 3.44007 6.7414V7.63126C3.25331 7.41551 3.17332 7.19977 3.17332 7.0111C3.20011 6.95712 3.20011 6.93006 3.20011 6.87626ZM2.93355 14.6693V13.4828C3.09352 13.5637 3.28028 13.6177 3.46684 13.6716V14.9122C3.36025 14.8582 3.25348 14.8044 3.14689 14.7504C3.06672 14.7502 2.98675 14.7231 2.93355 14.6693ZM4.53346 13.9952C4.69343 14.0221 4.82681 14.0492 4.98677 14.0761H5.06676V15.3974C4.88 15.3705 4.69343 15.3166 4.53347 15.2626L4.53346 13.9952ZM6.13356 14.2378C6.32032 14.2647 6.48029 14.2647 6.66685 14.2647V15.613C6.48009 15.613 6.32013 15.5861 6.13356 15.5861V14.2378ZM7.73347 14.2918C7.92023 14.2918 8.0802 14.2649 8.26676 14.2649V15.6132C8.08 15.6401 7.92004 15.6401 7.73347 15.6401V14.2918ZM9.33358 14.103C9.52033 14.0761 9.6803 14.049 9.86686 13.9952V15.2895C9.70689 15.3435 9.52014 15.3704 9.33358 15.4244V14.103ZM11.467 14.049C11.3336 14.3187 11.2002 14.5614 11.0936 14.858C11.0403 14.8849 10.9871 14.912 10.9337 14.9389V13.6984C11.0936 13.6444 11.2804 13.5635 11.4404 13.5095C11.4404 13.5095 11.467 13.5095 11.467 13.4826L11.467 14.049ZM3.46693 20.2511C3.6269 20.332 3.81366 20.386 4.00022 20.4399V21.6805C3.81346 21.5996 3.6269 21.5187 3.46693 21.4107V20.2511ZM5.06684 20.7366C5.2536 20.7635 5.41357 20.8174 5.60013 20.8443V22.1657C5.41337 22.1388 5.22681 22.0848 5.06684 22.0308V20.7366ZM6.66695 20.9792C6.8537 21.0061 7.01367 21.0061 7.20023 21.0061V22.3544C7.01348 22.3544 6.85351 22.3275 6.66695 22.3275V20.9792ZM8.26705 21.0332C8.4538 21.0332 8.61377 21.0063 8.80033 21.0063V22.3546C8.61358 22.3815 8.45361 22.3815 8.26705 22.3815V21.0332ZM9.86696 20.8443C10.0537 20.8174 10.2137 20.7904 10.4002 20.7366V22.0309C10.2403 22.0849 10.0535 22.1117 9.86696 22.1657V20.8443ZM11.4671 20.4668C11.627 20.7635 11.8138 21.0332 12.0003 21.3027V21.4376C11.8404 21.5185 11.6536 21.6264 11.4671 21.7073V20.4668ZM1.70702 12.8625C1.76041 12.8894 1.81361 12.9434 1.86699 12.9703V13.8602C1.68024 13.6444 1.60025 13.4287 1.60025 13.24C1.60044 13.1051 1.62704 12.9703 1.70702 12.8625ZM2.48026 16.2601C2.80021 16.4219 3.14693 16.5568 3.49365 16.6916C3.97355 16.8534 4.45365 16.9883 4.98694 17.0692C5.68023 17.204 6.42685 17.258 7.20028 17.258C8.1869 17.258 9.12029 17.1502 9.97353 16.9345C10.2135 16.8805 10.4534 16.7996 10.6936 16.7456C10.667 16.9074 10.667 17.096 10.667 17.2578C10.667 17.8242 10.747 18.3904 10.8803 18.9296C10.0269 19.2263 8.96033 19.4149 7.73376 19.4149C5.94708 19.4149 4.48041 19.0105 3.49379 18.471C3.20044 18.3093 2.9605 18.1475 2.74712 17.9586C2.50716 17.7429 2.3204 17.5271 2.2404 17.3385C2.18701 17.2036 2.13381 17.0958 2.13381 16.9879C2.13363 16.7725 2.267 16.5297 2.48017 16.2601L2.48026 16.2601ZM2.2403 19.6039C2.29369 19.6308 2.34689 19.6848 2.40028 19.7117V20.6016C2.21352 20.3858 2.13353 20.1701 2.13353 19.9814C2.13372 19.8466 2.16032 19.7117 2.2403 19.6039Z" fill="currentColor" fill-opacity="0.87"/>
</svg>
