<svg width="24" height="24" viewBox="0 0 24 24" fill="none" xmlns="http://www.w3.org/2000/svg">
<path d="M0.000941675 23.5001C0.000941675 23.7765 0.247072 24 0.550476 24H23.4505C23.7541 24 24 23.7763 24 23.5001V20.213C24 17.1563 21.2174 14.6694 17.7968 14.6694H6.20316C2.78288 14.6694 0 17.1563 0 20.213L0.000941675 23.5001ZM1.10001 20.213C1.10001 17.7077 3.38948 15.6695 6.20387 15.6695H17.7975C20.6119 15.6695 22.9014 17.7075 22.9014 20.213V22.9999H1.10024L1.10001 20.213Z" fill="currentColor" fill-opacity="0.87"/>
<path d="M12.0007 0C8.60824 0 5.66678 2.54442 4.98781 6.05622C4.89626 6.25335 4.84082 6.4714 4.84082 6.70368V8.6421C4.84082 9.48145 5.50948 10.1641 6.33137 10.1641C6.49216 10.1641 6.64398 10.1312 6.78912 10.0831C7.77984 11.8449 9.7933 12.9926 12.0011 12.9926C14.2071 12.9926 16.2189 11.8442 17.2091 10.082C17.3552 10.131 17.5082 10.164 17.6701 10.164C18.4917 10.164 19.1605 9.48143 19.1605 8.64207V6.70366C19.1605 6.47033 19.1046 6.25165 19.0123 6.05389C18.3365 2.54375 15.3956 0.000348226 12.0007 0.000348226L12.0007 0ZM12.0007 1.00007C14.5204 1.00007 16.7507 2.70556 17.6444 5.18424C17.4921 5.18696 17.3477 5.21731 17.2099 5.26356C16.2199 3.50096 14.2076 2.3525 12.0016 2.3525C9.79359 2.3525 7.77994 3.50074 6.7894 5.2627C6.65231 5.21708 6.509 5.18694 6.35787 5.18423C7.2536 2.70533 9.48372 1.00007 12.0007 1.00007ZM16.2109 5.67437C15.1311 5.85014 13.7792 5.74322 13.4637 5.70366C13.1757 5.57957 11.9579 5.0405 11.9579 5.0405C11.8038 4.97271 11.6244 4.97312 11.4716 5.04302L9.48856 5.94494L7.80615 5.64277C8.62504 4.25265 10.2385 3.35281 12.0016 3.35281C13.7756 3.3526 15.3984 4.26603 16.2109 5.67437ZM5.94037 8.6421V6.70368C5.94037 6.39607 6.14647 6.18178 6.33164 6.18178C6.51658 6.18178 6.72269 6.39607 6.72269 6.70368V8.6421C6.72269 8.94972 6.51658 9.164 6.33164 9.164C6.14647 9.164 5.94037 8.94972 5.94037 8.6421ZM12.0016 11.9926C10.0993 11.9926 8.38188 10.939 7.63867 9.35819C7.75184 9.14369 7.822 8.90221 7.822 8.64189V6.70347C7.822 6.69008 7.81855 6.67752 7.81809 6.66413L9.46004 6.95877C9.49523 6.96505 9.53088 6.96798 9.56631 6.96798C9.65119 6.96798 9.73538 6.94998 9.81221 6.91524L11.7207 6.04766C13.0142 6.61937 13.071 6.64048 13.0896 6.64717C13.2596 6.71037 14.8118 6.86773 16.1812 6.68881C16.1812 6.69384 16.1798 6.69844 16.1798 6.70325V8.64167C16.1798 8.90053 16.2493 9.14076 16.3615 9.35444C15.6197 10.9375 13.9028 11.9926 12.0016 11.9926ZM18.0617 8.6421C18.0617 8.94972 17.8556 9.164 17.6706 9.164C17.4855 9.164 17.2794 8.94972 17.2794 8.6421V6.70368C17.2794 6.39607 17.4855 6.18178 17.6706 6.18178C17.8556 6.18178 18.0617 6.39607 18.0617 6.70368V8.6421Z" fill="currentColor"/>
</svg>
