<svg width="185" height="49" viewBox="0 0 185 49" fill="none" xmlns="http://www.w3.org/2000/svg">
<path d="M74.4632 35.0235C72.5263 35.8282 70.2534 36.2306 67.6445 36.2306C63.7509 36.2306 60.3614 35.2885 57.4758 33.4042C54.1554 31.2254 52.4952 28.3008 52.4952 24.6303C52.4952 20.9795 54.1652 18.0549 57.5054 15.8565C60.4108 13.9526 63.7905 13.0006 67.6445 13.0006C70.036 13.0006 72.3089 13.4226 74.4632 14.2666V23.1288C72.5263 20.793 70.2534 19.6251 67.6445 19.6251C66.0041 19.6251 64.5909 20.0471 63.4051 20.8911C62.0611 21.8333 61.3891 23.0797 61.3891 24.6303C61.3891 26.2398 62.0512 27.5157 63.3754 28.4578C64.5415 29.3019 65.9645 29.7239 67.6445 29.7239C70.0162 29.7239 72.2891 28.6541 74.4632 26.5146V35.0235Z" fill="white"/>
<path d="M101.083 35.4946H92.7231V27.0152H84.6593V35.4946H76.299V13.7072H84.6593V21.5389H92.7231V13.7072H101.083V35.4946Z" fill="white"/>
<path d="M131.514 35.4946H122.234L120.456 31.8732H112.451L110.583 35.4946H101.512L112.273 13.7072H120.871L131.514 35.4946ZM118.084 26.5441L116.513 22.8049L114.882 26.5441H118.084Z" fill="white"/>
<path d="M155.827 35.4946H145.243L140.055 29.2528V35.4946H131.725V13.7072H142.546C145.174 13.7072 147.388 14.2077 149.186 15.2088C151.42 16.4453 152.536 18.2708 152.536 20.685C152.536 23.6685 150.768 25.7099 147.23 26.8091L155.827 35.4946ZM143.731 20.95C143.731 20.3219 143.395 19.8509 142.723 19.5368C142.19 19.2816 141.577 19.154 140.885 19.154H140.322C140.283 19.154 140.243 19.1639 140.203 19.1835H140.055V22.8343C140.095 22.8343 140.124 22.8442 140.144 22.8638H140.885C141.617 22.8638 142.239 22.7264 142.753 22.4516C143.405 22.1179 143.731 21.6174 143.731 20.95Z" fill="white"/>
<path d="M175.898 28.0162C175.898 33.4532 172.281 36.1717 165.047 36.1717C160.6 36.1717 157.092 35.2198 154.523 33.3158L158.288 27.6923C160.304 29.4589 162.468 30.3422 164.78 30.3422C165.294 30.3422 165.788 30.2342 166.263 30.0183C166.875 29.7435 167.182 29.3902 167.182 28.9584C167.182 28.3695 166.203 27.8297 164.247 27.339C161.44 26.6324 159.602 26.0534 158.732 25.6019C156.776 24.5813 155.797 23.1091 155.797 21.1856C155.797 15.7682 159.167 13.0595 165.907 13.0595C169.069 13.0595 172.172 13.7465 175.216 15.1204L171.658 20.5967C169.741 19.4387 168.111 18.8596 166.767 18.8596C165.423 18.8596 164.751 19.1835 164.751 19.8312C164.751 20.3612 165.709 20.8715 167.626 21.3622C170.235 22.0296 172.024 22.6479 172.992 23.2171C174.929 24.3555 175.898 25.9552 175.898 28.0162Z" fill="white"/>
<path d="M185 35.4946H176.669V13.7072H185V35.4946Z" fill="white"/>
<path fill-rule="evenodd" clip-rule="evenodd" d="M49.8877 46.9469L39.2135 45.2179C31.8581 50.4298 21.6279 50.3475 14.2955 44.3951C12.8975 43.2602 11.6891 41.9803 10.6744 40.5952L0 38.8662L6.84946 30.5446C6.35247 25.3815 7.8261 20.0296 11.3925 15.6967C14.9589 11.3637 19.9471 8.86496 25.1409 8.32168L31.9904 0L35.8199 10.0452C37.3886 10.7573 38.8919 11.6788 40.2899 12.8137C47.6222 18.7661 49.7383 28.7064 46.0583 36.9019L49.8877 46.9469ZM43.8584 40.6592C43.6453 40.9476 43.4234 41.232 43.1928 41.5121C42.9623 41.7922 42.7258 42.0647 42.4837 42.3294L44.6275 42.6767L43.8584 40.6592ZM31.6643 8.67242L30.8968 6.65922L29.5235 8.32771C30.2407 8.40486 30.9553 8.51966 31.6643 8.67242ZM7.72713 34.8088L6.35386 36.4772L8.49309 36.8237C8.20134 36.1641 7.94592 35.4914 7.72713 34.8088ZM43.0593 38.5631C42.666 39.1754 42.2325 39.7713 41.7582 40.3475C41.284 40.9236 40.7822 41.4641 40.2562 41.9686L38.3039 41.6524C39.1126 40.9778 39.8698 40.2189 40.5627 39.377C41.2557 38.5351 41.854 37.6472 42.3589 36.7258L43.0593 38.5631ZM36.8061 12.6321C37.6042 13.1023 38.3769 13.6375 39.1172 14.2384C45.2492 19.2164 47.3712 27.2602 45.0734 34.3184L44.1248 31.8302C45.274 25.8878 43.1885 19.5241 38.14 15.4257C38.0128 15.3225 37.8846 15.2214 37.7555 15.1224L36.8061 12.6321ZM28.0931 10.0655C29.5635 10.127 31.0312 10.3605 32.4637 10.7694L33.1647 12.6082C31.1194 11.8677 28.9713 11.5318 26.8394 11.5887L28.0931 10.0655ZM8.60961 28.4061C8.65078 24.3382 10.033 20.256 12.8271 16.8613C15.6213 13.4666 19.3747 11.3094 23.3808 10.4601L21.6885 12.5162C18.7828 13.5114 16.1107 15.2949 14.0226 17.8318C11.9345 20.3687 10.706 23.3242 10.3019 26.3501L8.60961 28.4061ZM13.4233 41.0405L16.0695 41.4691C16.1929 41.5752 16.3182 41.6799 16.4454 41.7831C21.494 45.8815 28.1886 46.6455 33.8241 44.345L36.4682 44.7732C29.96 48.4137 21.6002 47.9484 15.4682 42.9704C14.7279 42.3694 14.046 41.7237 13.4233 41.0405ZM10.7215 37.1847C10.033 35.8718 9.51063 34.4898 9.15749 33.071L10.4112 31.5478C10.7791 33.6341 11.5378 35.6578 12.6754 37.5012L10.7215 37.1847ZM43.6845 30.6752C44.3507 25.4343 42.4554 19.9868 38.1951 16.2758L43.6845 30.6752ZM33.4577 13.3768L42.0662 35.9581C41.5307 37.0166 40.8709 38.0335 40.0845 38.9888C39.2982 39.9441 38.426 40.7886 37.4881 41.5203L13.4921 37.6334C12.132 35.5844 11.2734 33.2826 10.935 30.9115L26.3156 12.2251C28.7228 12.0828 31.1651 12.4606 33.4577 13.3768ZM20.904 13.4692C18.4865 14.4732 16.275 16.0645 14.5008 18.22C12.7267 20.3755 11.5962 22.8444 11.0863 25.3971L20.904 13.4692ZM17.295 41.6676C21.8046 45.076 27.5574 45.8372 32.5968 44.1462L17.295 41.6676Z" fill="white"/>
</svg>
