<svg  viewBox="0 0 471 127" fill="none" xmlns="http://www.w3.org/2000/svg" preserveAspectRatio="xMinYMin meet">
<path d="M189.579 90.7752C184.648 92.861 178.861 93.9039 172.219 93.9039C162.306 93.9039 153.677 91.462 146.33 86.5781C137.877 80.9312 133.65 73.3511 133.65 63.8378C133.65 54.3754 137.902 46.7953 146.406 41.0975C153.803 36.1628 162.407 33.6954 172.219 33.6954C178.308 33.6954 184.095 34.7892 189.579 36.9767V59.946C184.648 53.8921 178.861 50.8651 172.219 50.8651C168.043 50.8651 164.445 51.9589 161.426 54.1464C158.004 56.5884 156.293 59.8188 156.293 63.8378C156.293 68.0094 157.979 71.3162 161.35 73.7581C164.319 75.9456 167.942 77.0394 172.219 77.0394C178.258 77.0394 184.044 74.2668 189.579 68.7216V90.7752Z" fill="url(#paint0_linear_2197_660)"/>
<path d="M257.353 91.9961H236.068V70.0189H215.538V91.9961H194.253V35.5268H215.538V55.8253H236.068V35.5268H257.353V91.9961Z" fill="url(#paint1_linear_2197_660)"/>
<path d="M334.827 91.9961H311.202L306.673 82.61H286.294L281.539 91.9961H258.443L285.841 35.5268H307.73L334.827 91.9961ZM300.635 68.7979L296.635 59.1066L292.484 68.7979H300.635Z" fill="url(#paint2_linear_2197_660)"/>
<path d="M396.728 91.9961H369.782L356.573 75.8184V91.9961H335.364V35.5268H362.913C369.606 35.5268 375.241 36.8241 379.82 39.4186C385.506 42.6237 388.349 47.3549 388.349 53.6123C388.349 61.345 383.846 66.6358 374.839 69.4847L396.728 91.9961ZM365.932 54.2991C365.932 52.6711 365.077 51.4502 363.366 50.6362C362.008 49.9748 360.448 49.6442 358.686 49.6442H357.252C357.152 49.6442 357.051 49.6696 356.951 49.7205H356.573V59.1829C356.674 59.1829 356.749 59.2083 356.8 59.2592H358.686C360.548 59.2592 362.133 58.9031 363.442 58.1909C365.102 57.326 365.932 56.0288 365.932 54.2991Z" fill="url(#paint3_linear_2197_660)"/>
<path d="M447.826 72.6134C447.826 86.7053 438.618 93.7513 420.201 93.7513C408.879 93.7513 399.948 91.2839 393.406 86.3492L402.992 71.774C408.125 76.3526 413.635 78.6419 419.522 78.6419C420.83 78.6419 422.088 78.3621 423.296 77.8025C424.856 77.0903 425.636 76.1746 425.636 75.0553C425.636 73.5291 423.145 72.1301 418.163 70.8583C411.018 69.0269 406.338 67.5261 404.124 66.356C399.143 63.7106 396.652 59.8951 396.652 54.9095C396.652 40.8685 405.231 33.848 422.39 33.848C430.441 33.848 438.341 35.6286 446.09 39.1897L437.033 53.3834C432.152 50.3818 428.001 48.8811 424.579 48.8811C421.157 48.8811 419.446 49.7205 419.446 51.3993C419.446 52.7729 421.887 54.0956 426.768 55.3674C433.41 57.0971 437.964 58.6996 440.429 60.1749C445.361 63.1256 447.826 67.2717 447.826 72.6134Z" fill="url(#paint4_linear_2197_660)"/>
<path d="M471 91.9961H449.791V35.5268H471V91.9961Z" fill="url(#paint5_linear_2197_660)"/>
<path fill-rule="evenodd" clip-rule="evenodd" d="M127.011 121.679L99.8353 117.197C81.1089 130.706 55.0634 130.492 36.3956 115.065C32.8363 112.123 29.7598 108.806 27.1763 105.216L0 100.735L17.4383 79.1666C16.1731 65.7848 19.9248 51.9136 29.0047 40.6833C38.0846 29.453 50.7843 22.9765 64.0075 21.5684L81.446 0L91.1956 26.0356C95.1893 27.8812 99.0167 30.2696 102.576 33.211C121.244 48.6386 126.631 74.4024 117.262 95.6436L127.011 121.679ZM111.661 105.382C111.118 106.129 110.554 106.867 109.967 107.593C109.38 108.319 108.778 109.025 108.161 109.711L113.619 110.611L111.661 105.382ZM80.6155 22.4775L78.6616 17.2596L75.1652 21.5841C76.9911 21.784 78.8106 22.0816 80.6155 22.4775ZM19.6729 90.2187L16.1766 94.543L21.6229 95.4411C20.8802 93.7315 20.2299 91.988 19.6729 90.2187ZM109.627 99.9492C108.625 101.536 107.522 103.081 106.314 104.574C105.107 106.067 103.829 107.468 102.49 108.776L97.5196 107.956C99.5786 106.208 101.506 104.241 103.271 102.059C105.035 99.8768 106.558 97.5753 107.843 95.1874L109.627 99.9492ZM93.7064 32.7404C95.7381 33.9589 97.7055 35.3461 99.5903 36.9037C115.202 49.8058 120.605 70.6539 114.754 88.9478L112.339 82.4986C115.265 67.0968 109.956 50.6033 97.1023 39.9809C96.7786 39.7134 96.4523 39.4514 96.1234 39.1949L93.7064 32.7404ZM71.5236 26.0881C75.267 26.2475 79.0039 26.8528 82.6508 27.9126L84.4355 32.6785C79.2282 30.759 73.7594 29.8885 68.3316 30.0361L71.5236 26.0881ZM21.9196 73.624C22.0244 63.0807 25.5434 52.5003 32.6572 43.7017C39.7709 34.9032 49.327 29.312 59.5262 27.111L55.2177 32.4399C47.8201 35.0193 41.0171 39.6419 35.7008 46.2172C30.3846 52.7924 27.2569 60.4525 26.228 68.2952L21.9196 73.624ZM34.175 106.37L40.9121 107.481C41.2263 107.756 41.5453 108.027 41.8691 108.295C54.7225 118.917 71.7667 120.898 86.1144 114.935L92.8461 116.045C76.2766 125.48 54.993 124.274 39.3811 111.372C37.4963 109.815 35.7603 108.141 34.175 106.37ZM27.2963 96.3766C25.5436 92.974 24.2135 89.3919 23.3145 85.7146L26.5064 81.7667C27.4429 87.174 29.3746 92.4193 32.2709 97.1969L27.2963 96.3766ZM111.218 79.5051C112.915 65.9214 108.089 51.8025 97.2428 42.1841L111.218 79.5051ZM85.1815 34.6705L107.098 93.1975C105.735 95.9409 104.055 98.5766 102.053 101.053C100.051 103.529 97.8306 105.717 95.4426 107.614L34.3502 97.5398C30.8874 92.229 28.7016 86.263 27.8399 80.1174L66.9981 31.6854C73.1267 31.3167 79.3447 32.2958 85.1815 34.6705ZM53.2206 34.91C47.0656 37.5123 41.4352 41.6366 36.9183 47.2233C32.4014 52.81 29.5234 59.2091 28.2252 65.8251L53.2206 34.91ZM44.0322 107.996C55.5134 116.83 70.1597 118.802 82.9898 114.42L44.0322 107.996Z" fill="url(#paint6_linear_2197_660)"/>
<defs>
<linearGradient id="paint0_linear_2197_660" x1="235.5" y1="0" x2="108.456" y2="150.264" gradientUnits="userSpaceOnUse">
<stop stop-color="#7C4DFF"/>
<stop offset="0.0001" stop-color="#7C4DFF"/>
<stop offset="1" stop-color="#FB4DFF"/>
</linearGradient>
<linearGradient id="paint1_linear_2197_660" x1="235.5" y1="0" x2="108.456" y2="150.264" gradientUnits="userSpaceOnUse">
<stop stop-color="#7C4DFF"/>
<stop offset="0.0001" stop-color="#7C4DFF"/>
<stop offset="1" stop-color="#FB4DFF"/>
</linearGradient>
<linearGradient id="paint2_linear_2197_660" x1="235.5" y1="0" x2="108.456" y2="150.264" gradientUnits="userSpaceOnUse">
<stop stop-color="#7C4DFF"/>
<stop offset="0.0001" stop-color="#7C4DFF"/>
<stop offset="1" stop-color="#FB4DFF"/>
</linearGradient>
<linearGradient id="paint3_linear_2197_660" x1="235.5" y1="0" x2="108.456" y2="150.264" gradientUnits="userSpaceOnUse">
<stop stop-color="#7C4DFF"/>
<stop offset="0.0001" stop-color="#7C4DFF"/>
<stop offset="1" stop-color="#FB4DFF"/>
</linearGradient>
<linearGradient id="paint4_linear_2197_660" x1="235.5" y1="0" x2="108.456" y2="150.264" gradientUnits="userSpaceOnUse">
<stop stop-color="#7C4DFF"/>
<stop offset="0.0001" stop-color="#7C4DFF"/>
<stop offset="1" stop-color="#FB4DFF"/>
</linearGradient>
<linearGradient id="paint5_linear_2197_660" x1="235.5" y1="0" x2="108.456" y2="150.264" gradientUnits="userSpaceOnUse">
<stop stop-color="#7C4DFF"/>
<stop offset="0.0001" stop-color="#7C4DFF"/>
<stop offset="1" stop-color="#FB4DFF"/>
</linearGradient>
<linearGradient id="paint6_linear_2197_660" x1="235.5" y1="0" x2="108.456" y2="150.264" gradientUnits="userSpaceOnUse">
<stop stop-color="#7C4DFF"/>
<stop offset="0.0001" stop-color="#7C4DFF"/>
<stop offset="1" stop-color="#FB4DFF"/>
</linearGradient>
</defs>
</svg>
