<svg width="24" height="20" viewBox="0 0 24 20" fill="none" xmlns="http://www.w3.org/2000/svg">
                                    <path d="M3.66972 2.22781C5.22328 1.50093 6.88442 0.972672 8.6211 0.671875C8.83439 1.05749 9.08357 1.57614 9.25537 1.98873C11.1015 1.71109 12.9307 1.71109 14.7428 1.98873C14.9146 1.57614 15.1694 1.05749 15.3846 0.671875C17.1232 0.972672 18.7862 1.50287 20.3398 2.23166C23.4734 6.96686 24.3228 11.5845 23.8981 16.1365C21.8197 17.6885 19.8056 18.6313 17.8254 19.2483C17.3365 18.5754 16.9005 17.8601 16.5248 17.1063C17.2402 16.8344 17.9255 16.499 18.5729 16.1095C18.4012 15.9822 18.2331 15.8492 18.0708 15.7123C14.1218 17.5594 9.8311 17.5594 5.92926 15.7123C5.76503 15.8492 5.59705 15.9822 5.42716 16.1095C6.07652 16.5009 6.76362 16.8363 7.47904 17.1082C7.1034 17.8601 6.66923 18.5774 6.17844 19.2502C4.19637 18.6333 2.18034 17.6905 0.102005 16.1365C-0.396351 10.8595 0.953335 6.28434 3.66972 2.22781ZM15.9868 13.337C17.1723 13.337 18.1444 12.2303 18.1444 10.8826C18.1444 9.53497 17.193 8.42636 15.9868 8.42636C14.7806 8.42636 13.8084 9.53303 13.8292 10.8826C13.8273 12.2303 14.7806 13.337 15.9868 13.337ZM8.01326 13.337C9.19871 13.337 10.1709 12.2303 10.1709 10.8826C10.1709 9.53497 9.21951 8.42636 8.01326 8.42636C6.80704 8.42636 5.83488 9.53303 5.85564 10.8826C5.85564 12.2303 6.80704 13.337 8.01326 13.337Z" fill="#7289DA"/>
                                </svg>