<svg width="53" height="77" viewBox="0 0 53 77" fill="none" xmlns="http://www.w3.org/2000/svg">
<path d="M21.2333 4.33227C21.2333 7.45277 21.1938 8.3481 21.0753 8.3481C20.9831 8.3481 20.2458 8.41394 19.4294 8.47977C17.5861 8.63777 15.4926 9.12494 14.1891 9.67794C14.0443 9.7306 13.5439 9.94127 13.0699 10.1388C9.06727 11.7714 4.7091 15.6819 2.68143 19.4344C2.24693 20.2639 1.6281 21.6596 1.52277 22.0941C1.06193 23.9769 0.982934 25.4911 1.21993 27.6373C1.7071 31.8901 3.58993 35.4188 6.74993 37.9731C7.76377 38.7894 7.84277 38.8421 8.27727 39.1186C8.64593 39.3556 11.4899 40.7776 11.9508 40.9619C12.3063 41.0936 13.3069 41.4359 13.4649 41.4623C13.7151 41.5281 14.7816 41.8178 15.0449 41.9231C15.8218 42.1864 18.3893 42.6473 20.5486 42.9106L21.2333 43.0028V56.5776L20.1536 56.4986C19.1529 56.4328 17.5466 56.1036 17.2174 55.9061C17.1516 55.8534 17.0594 55.8139 17.0199 55.8008C16.0851 55.6164 13.4781 53.6546 13.2674 52.9699C13.2148 52.8251 13.1358 52.7198 13.0831 52.7198C12.9251 52.7198 12.0956 50.9686 11.8323 50.0864L11.6084 49.3623L6.2101 49.4018L0.811768 49.4281L0.890768 50.2576C1.1146 52.4301 1.7466 54.7738 2.62877 56.6698C2.9711 57.3808 3.93227 59.1056 4.14293 59.3689C4.1956 59.4348 4.49843 59.8298 4.81443 60.2248C5.76243 61.4493 7.4741 63.0556 9.11993 64.2538C9.90993 64.8331 12.3326 66.2814 12.5038 66.2814C12.5696 66.2814 12.8329 66.3999 13.0831 66.5316C13.5308 66.7686 15.2819 67.3611 16.5591 67.7166C17.3754 67.9404 19.0344 68.1248 20.1931 68.1248H21.2333V76.6831H31.1083L31.1346 72.3118L31.1741 67.9273L32.2933 67.8483C33.8864 67.7298 36.7831 67.0846 37.9549 66.5843C38.0603 66.5448 38.1919 66.4921 38.2446 66.4921C38.2841 66.4789 38.3763 66.4394 38.4289 66.3868C38.4816 66.3209 38.6001 66.2814 38.6923 66.2814C38.9029 66.2814 40.8253 65.3598 41.9708 64.7146C42.4843 64.4249 42.9846 64.1353 43.0899 64.0826C43.1953 64.0299 43.3533 63.9246 43.4454 63.8588C43.5376 63.7798 43.9194 63.5033 44.2881 63.2531C45.2098 62.6343 47.1979 60.8699 47.8036 60.1326C48.0669 59.8166 48.4224 59.3821 48.5936 59.1978C49.0676 58.6448 50.3316 56.5644 50.7266 55.6823C52.0959 52.6276 52.4778 49.1516 51.7668 46.2023C51.6219 45.6229 51.4903 45.0304 51.4508 44.8856C51.3586 44.5169 50.0024 41.7914 49.7128 41.4096C47.1716 38.0653 44.4198 36.0113 40.3908 34.5103C38.5738 33.8388 35.8088 33.2594 33.8733 33.1673C33.1096 33.1278 32.1748 33.0619 31.7929 33.0224L31.1083 32.9566L31.1346 26.3469L31.1741 19.7373L31.9378 19.7636C33.9654 19.8294 36.7699 21.0013 37.9286 22.2389C38.7976 23.1738 39.2848 24.1876 39.3769 25.2673L39.4428 26.1231H50.8056L50.7529 25.6228C50.7003 25.0039 50.3711 23.6346 50.0683 22.6998C48.2118 17.0381 44.2618 12.2849 39.5349 10.0334C37.7838 9.20394 37.3098 9.00644 36.4408 8.79577C36.3749 8.76944 35.8614 8.63777 35.3084 8.49294C34.7554 8.3481 33.6889 8.16377 32.9384 8.08477C32.1879 8.00577 31.4638 7.9136 31.3453 7.8741C31.1214 7.80827 31.1083 7.50544 31.1083 4.05577V0.316437H21.2333V4.33227ZM21.2333 25.2014V31.1264H20.4828C19.7981 31.1133 19.3768 31.0474 18.3893 30.8236C17.9943 30.7314 16.3089 30.0468 16.2299 29.9546C16.1904 29.9151 15.9929 29.7834 15.7691 29.6781C15.0581 29.3094 13.7809 27.9928 13.3201 27.1501C12.8988 26.3733 12.8724 26.2416 12.8724 25.0698C12.8724 24.1613 12.9514 23.6083 13.1358 23.0421C13.8731 20.8433 16.6776 19.3423 20.0878 19.2896L21.2333 19.2764V25.2014ZM34.0708 44.7539C36.9543 44.9778 39.3243 46.3076 40.2854 48.2563C40.8911 49.4808 40.9174 51.9561 40.3249 53.0884C39.2716 55.1029 35.9931 56.4986 32.2669 56.5249L31.1083 56.5381V50.6394C31.1083 47.3873 31.1478 44.6881 31.2004 44.6354C31.2531 44.5828 31.6876 44.5828 32.1616 44.6091C32.6356 44.6486 33.4914 44.7144 34.0708 44.7539Z" fill="#4CAF50"/>
</svg>
