<svg width="32" height="32" viewBox="0 0 32 32" fill="none" xmlns="http://www.w3.org/2000/svg">
<path fill-rule="evenodd" clip-rule="evenodd" d="M32 30.6592L25.1531 29.5301C20.4351 32.9337 13.873 32.88 9.16971 28.9927C8.27297 28.2516 7.49787 27.4157 6.84697 26.5112L0 25.382L4.39352 19.9475C4.07474 16.5757 5.01998 13.0806 7.30763 10.2509C9.59527 7.42122 12.7949 5.78936 16.1264 5.43457L20.52 0L22.9764 6.56015C23.9826 7.02519 24.9469 7.62699 25.8436 8.36813C30.5468 12.2554 31.9042 18.7471 29.5437 24.0992L32 30.6592ZM28.1326 26.553C27.9959 26.7413 27.8536 26.927 27.7057 27.11C27.5578 27.2929 27.4061 27.4708 27.2508 27.6437L28.6259 27.8705L28.1326 26.553ZM20.3108 5.66362L19.8185 4.34888L18.9376 5.43851C19.3976 5.48889 19.856 5.56386 20.3108 5.66362ZM4.9565 22.7323L4.07562 23.8219L5.44781 24.0481C5.26068 23.6174 5.09684 23.1781 4.9565 22.7323ZM27.62 25.184C27.3677 25.5839 27.0896 25.9731 26.7855 26.3494C26.4813 26.7256 26.1594 27.0786 25.822 27.4081L24.5697 27.2016C25.0884 26.761 25.5741 26.2654 26.0186 25.7156C26.4631 25.1658 26.8469 24.5859 27.1707 23.9842L27.62 25.184ZM23.6089 8.24955C24.1208 8.55658 24.6165 8.9061 25.0914 9.29856C29.0247 12.5495 30.3859 17.8025 28.9119 22.412L28.3035 20.787C29.0406 16.9063 27.7029 12.7504 24.4645 10.0739C24.383 10.0065 24.3008 9.94052 24.2179 9.87587L23.6089 8.24955ZM18.0201 6.57339C18.9632 6.61354 19.9047 6.76607 20.8236 7.03311L21.2732 8.23396C19.9612 7.75031 18.5834 7.53095 17.2159 7.56814L18.0201 6.57339ZM5.52255 18.5509C5.54896 15.8943 6.43555 13.2284 8.22784 11.0115C10.0201 8.7945 12.4277 7.3857 14.9974 6.83111L13.9119 8.17382C12.0481 8.82375 10.3341 9.98851 8.99468 11.6453C7.65528 13.302 6.86726 15.2321 6.60805 17.2082L5.52255 18.5509ZM8.61025 26.8019L10.3076 27.0819C10.3868 27.1511 10.4672 27.2195 10.5488 27.2869C13.7871 29.9635 18.0813 30.4624 21.6962 28.96L23.3922 29.2397C19.2176 31.6171 13.8553 31.3132 9.92192 28.0623C9.44705 27.6698 9.00967 27.2481 8.61025 26.8019ZM6.87719 24.2839C6.43561 23.4265 6.10051 22.5239 5.87399 21.5974L6.67818 20.6026C6.91414 21.9651 7.4008 23.2867 8.13052 24.4906L6.87719 24.2839ZM28.021 20.0328C28.4484 16.6101 27.2327 13.0526 24.4999 10.6291L28.021 20.0328ZM21.4611 8.73588L26.983 23.4828C26.6395 24.1741 26.2163 24.8382 25.7119 25.4621C25.2075 26.086 24.648 26.6375 24.0464 27.1153L8.65439 24.5769C7.78196 23.2388 7.23125 21.7355 7.01415 20.1871L16.8799 7.98372C18.424 7.89083 19.9906 8.13753 21.4611 8.73588ZM13.4087 8.79623C11.858 9.45191 10.4394 10.4911 9.30142 11.8988C8.1634 13.3065 7.4383 14.9188 7.11123 16.5858L13.4087 8.79623ZM11.0937 27.2115C13.9864 29.4374 17.6765 29.9345 20.9089 28.8302L11.0937 27.2115Z" fill="white"/>
</svg>
