<svg width="22" height="23" viewBox="0 0 22 23" fill="none" xmlns="http://www.w3.org/2000/svg">
<path fill-rule="evenodd" clip-rule="evenodd" d="M15.1266 21.1995C15.7081 21.5979 16.4463 22.0228 17.3121 22.3511C18.9903 22.9874 20.244 23.0245 20.8236 22.9917C22.1167 22.9184 22.2907 22.0987 21.5972 21.0816C20.8054 19.9202 20.0425 18.6077 20.1179 17.1551C21.306 15.3983 22 13.2788 22 11C22 4.92487 17.0751 0 11 0C4.92487 0 0 4.92487 0 11C0 17.0751 4.92487 22 11 22C12.4578 22 13.8513 21.7159 15.1266 21.1995ZM11 2C6.02944 2 2 6.02944 2 11C2 15.9706 6.02944 20 11 20C12.3697 20 13.6654 19.6947 14.825 19.1494C15.1635 18.9902 15.5626 19.0332 15.8594 19.261C16.3824 19.6624 17.1239 20.1407 18.0212 20.481C18.4111 20.6288 18.7674 20.7356 19.0856 20.8123C18.7532 20.2051 18.4167 19.4818 18.2616 18.8011C18.1018 18.0998 17.8622 16.8782 18.328 16.2262C19.3808 14.7531 20 12.9503 20 11C20 6.02944 15.9706 2 11 2ZM12.25 15.75C12.25 16.4404 11.6904 17 11 17C10.3096 17 9.75 16.4404 9.75 15.75C9.75 15.0596 10.3096 14.5 11 14.5C11.6904 14.5 12.25 15.0596 12.25 15.75ZM9.1353 7.96435C9.3999 7.45957 10.0831 7 11 7C12.283 7 13 7.83454 13 8.5C13 9.1655 12.283 10 11 10C10.4477 10 10 10.4477 10 11V12C10 12.5523 10.4477 13 11 13C11.5523 13 12 12.5523 12 12V11.8866C13.6316 11.5135 15 10.2471 15 8.5C15 6.40403 13.0307 5 11 5C9.4566 5 8.0252 5.77452 7.36398 7.03565C7.10753 7.52478 7.29615 8.1292 7.78528 8.38565C8.27442 8.64211 8.87883 8.45348 9.1353 7.96435Z" fill="url(#paint0_linear_3193_2591)"/>
<defs>
<linearGradient id="paint0_linear_3193_2591" x1="11" y1="0" x2="-2.02364" y2="3.97293" gradientUnits="userSpaceOnUse">
<stop stop-color="#7C4DFF"/>
<stop offset="0.0001" stop-color="#7C4DFF"/>
<stop offset="1" stop-color="#FB4DFF"/>
</linearGradient>
</defs>
</svg>
