<svg width="66" height="66" viewBox="0 0 66 66" fill="none" xmlns="http://www.w3.org/2000/svg">
<circle cx="33" cy="33" r="32" stroke="url(#paint0_linear_875_85198)" stroke-width="2"/>
<path d="M35.8145 14.4531L37.8139 14.4999L37.8617 12.4531H35.8145V14.4531ZM35.2285 39.5264V41.5264H37.1823L37.228 39.5731L35.2285 39.5264ZM30.1992 39.5264L28.1998 39.575L28.2473 41.5264H30.1992V39.5264ZM29.5889 14.4531V12.4531H27.5396L27.5895 14.5018L29.5889 14.4531ZM30.2969 44.9707L28.8639 43.5755L28.8634 43.576L30.2969 44.9707ZM35.2529 44.9707L33.82 46.3659L33.8293 46.3755L33.8387 46.3849L35.2529 44.9707ZM35.2529 49.4385L36.6671 50.8527L36.6766 50.8433L36.6859 50.8337L35.2529 49.4385ZM30.2969 49.4385L28.845 50.814L28.8636 50.8336L28.8827 50.8527L30.2969 49.4385ZM33.815 14.4064L33.2291 39.4796L37.228 39.5731L37.8139 14.4999L33.815 14.4064ZM35.2285 37.5264H30.1992V41.5264H35.2285V37.5264ZM32.1986 39.4777L31.5883 14.4045L27.5895 14.5018L28.1998 39.575L32.1986 39.4777ZM29.5889 16.4531H35.8145V12.4531H29.5889V16.4531ZM31.418 47.2168C31.418 46.805 31.5331 46.5681 31.7303 46.3654L28.8634 43.576C27.8888 44.5777 27.418 45.8383 27.418 47.2168H31.418ZM31.7298 46.3659C31.8736 46.2182 32.1389 46.043 32.7871 46.043V42.043C31.3194 42.043 29.9246 42.4862 28.8639 43.5755L31.7298 46.3659ZM32.7871 46.043C33.4088 46.043 33.6703 46.2122 33.82 46.3659L36.6859 43.5755C35.6311 42.4922 34.2488 42.043 32.7871 42.043V46.043ZM33.8387 46.3849C34.0451 46.5913 34.1562 46.8219 34.1562 47.2168H38.1562C38.1562 45.8213 37.6652 44.5546 36.6671 43.5565L33.8387 46.3849ZM34.1562 47.2168C34.1562 47.5578 34.0589 47.7979 33.82 48.0432L36.6859 50.8337C37.6514 49.8421 38.1562 48.601 38.1562 47.2168H34.1562ZM33.8387 48.0243C33.6921 48.1709 33.4242 48.3418 32.7871 48.3418V52.3418C34.2333 52.3418 35.6093 51.9105 36.6671 50.8527L33.8387 48.0243ZM32.7871 48.3418C32.1236 48.3418 31.8519 48.1651 31.7111 48.0243L28.8827 50.8527C29.9463 51.9163 31.3347 52.3418 32.7871 52.3418V48.3418ZM31.7488 48.063C31.5197 47.8211 31.418 47.5748 31.418 47.2168H27.418C27.418 48.584 27.9022 49.8188 28.845 50.814L31.7488 48.063Z" fill="url(#paint1_linear_875_85198)"/>
<defs>
<linearGradient id="paint0_linear_875_85198" x1="33" y1="0" x2="-5.76409" y2="12.3627" gradientUnits="userSpaceOnUse">
<stop stop-color="#7C4DFF"/>
<stop offset="0.0001" stop-color="#7C4DFF"/>
<stop offset="1" stop-color="#FB4DFF"/>
</linearGradient>
<linearGradient id="paint1_linear_875_85198" x1="33" y1="20" x2="24.2005" y2="21.5111" gradientUnits="userSpaceOnUse">
<stop stop-color="#7C4DFF"/>
<stop offset="0.0001" stop-color="#7C4DFF"/>
<stop offset="1" stop-color="#FB4DFF"/>
</linearGradient>
</defs>
</svg>
