<svg width="30" height="24" viewBox="0 0 30 24" fill="none" xmlns="http://www.w3.org/2000/svg">
<path d="M4.58715 2.28476C6.5291 1.37617 8.60553 0.71584 10.7764 0.339844C11.043 0.821857 11.3545 1.47018 11.5692 1.98591C13.8769 1.63887 16.1633 1.63887 18.4286 1.98591C18.6433 1.47018 18.9618 0.821857 19.2308 0.339844C21.404 0.71584 23.4828 1.37859 25.4248 2.28957C29.3417 8.20858 30.4035 13.9806 29.8726 19.6706C27.2747 21.6107 24.757 22.7892 22.2818 23.5604C21.6706 22.7193 21.1256 21.8252 20.656 20.8828C21.5503 20.543 22.4068 20.1237 23.2162 19.6369C23.0015 19.4778 22.7914 19.3115 22.5885 19.1404C17.6523 21.4492 12.2889 21.4492 7.41158 19.1404C7.20629 19.3115 6.99631 19.4778 6.78395 19.6369C7.59565 20.1261 8.45452 20.5454 9.3488 20.8853C8.87925 21.8252 8.33654 22.7217 7.72305 23.5628C5.24546 22.7916 2.72543 21.6131 0.127506 19.6706C-0.495438 13.0744 1.19167 7.35542 4.58715 2.28476ZM19.9835 16.1713C21.4653 16.1713 22.6806 14.7879 22.6806 13.1033C22.6806 11.4187 21.4913 10.033 19.9835 10.033C18.4757 10.033 17.2606 11.4163 17.2865 13.1033C17.2842 14.7879 18.4757 16.1713 19.9835 16.1713ZM10.0166 16.1713C11.4984 16.1713 12.7136 14.7879 12.7136 13.1033C12.7136 11.4187 11.5244 10.033 10.0166 10.033C8.50881 10.033 7.2936 11.4163 7.31954 13.1033C7.31954 14.7879 8.50881 16.1713 10.0166 16.1713Z" fill="white"/>
</svg>
