<svg width="87" height="87" viewBox="0 0 87 87" fill="none" xmlns="http://www.w3.org/2000/svg">
<circle cx="43.5" cy="43.5" r="43.5" fill="white"/>
<path fill-rule="evenodd" clip-rule="evenodd" d="M76.125 70.4445L61.0003 67.9502C50.5783 75.4689 36.0827 75.3502 25.6933 66.7632C23.7124 65.126 22.0002 63.2797 20.5623 61.2815L5.4375 58.7872L15.1427 46.7824C14.4385 39.3342 16.5266 31.6135 21.5799 25.3628C26.6333 19.1121 33.7013 15.5074 41.0605 14.7236L50.7658 2.71875L56.1919 17.21C58.4146 18.2373 60.5447 19.5666 62.5256 21.2038C72.915 29.7907 75.9134 44.1307 70.699 55.9535L76.125 70.4445ZM67.5819 61.3739C67.2799 61.7898 66.9656 62.2001 66.6389 62.6042C66.3122 63.0083 65.9771 63.4013 65.634 63.7833L68.6716 64.2842L67.5819 61.3739ZM50.3037 15.2296L49.2162 12.3254L47.2703 14.7323C48.2865 14.8436 49.2991 15.0092 50.3037 15.2296ZM16.3863 52.934L14.4405 55.3409L17.4716 55.8407C17.0582 54.8892 16.6963 53.9188 16.3863 52.934ZM66.4496 58.3499C65.8924 59.2332 65.2781 60.093 64.6061 60.9241C63.9342 61.7553 63.2231 62.535 62.4778 63.2628L59.7115 62.8066C60.8574 61.8333 61.9304 60.7386 62.9122 59.5241C63.8941 58.3096 64.7418 57.0286 65.4572 55.6995L66.4496 58.3499ZM57.5893 20.9419C58.7201 21.6201 59.815 22.3922 60.8639 23.2591C69.5526 30.4404 72.5594 42.0443 69.3035 52.2266L67.9594 48.637C69.5878 40.0645 66.6327 30.8842 59.4793 24.9719C59.2991 24.823 59.1175 24.6772 58.9345 24.5344L57.5893 20.9419ZM45.2436 17.2393C47.327 17.328 49.4067 17.6649 51.4364 18.2548L52.4297 20.9074C49.5315 19.8391 46.4879 19.3545 43.4671 19.4367L45.2436 17.2393ZM17.6367 43.6975C17.6951 37.8291 19.6535 31.9401 23.6127 27.0429C27.5718 22.1457 32.8902 19.0337 38.5665 17.8086L36.1686 20.7746C32.0515 22.2103 28.2653 24.7832 25.3066 28.443C22.3479 32.1027 20.6072 36.3663 20.0346 40.7315L17.6367 43.6975ZM24.4574 61.9238L28.2069 62.5422C28.3818 62.6952 28.5593 62.8462 28.7395 62.9952C35.893 68.9076 45.3789 70.0097 53.364 66.6909L57.1105 67.3087C47.8889 72.5604 36.0436 71.8892 27.3549 64.7079C26.3059 63.8409 25.3397 62.9095 24.4574 61.9238ZM20.6291 56.3614C19.6537 54.4675 18.9134 52.4738 18.4131 50.427L20.1895 48.2297C20.7107 51.2393 21.7858 54.1588 23.3977 56.818L20.6291 56.3614ZM67.3356 46.9709C68.2795 39.4103 65.594 31.5518 59.5575 26.1982L67.3356 46.9709ZM52.8448 22.0162L65.0425 54.592C64.2838 56.1189 63.3488 57.5859 62.2346 58.9641C61.1205 60.3422 59.8846 61.5605 58.5556 62.616L24.5549 57.0088C22.6277 54.0529 21.4112 50.7322 20.9316 47.3117L42.7249 20.3547C46.1358 20.1495 49.5964 20.6944 52.8448 22.0162ZM35.0571 22.1495C31.6316 23.5979 28.4981 25.8935 25.9842 29.003C23.4703 32.1125 21.8686 35.6742 21.1461 39.3566L35.0571 22.1495ZM29.9434 62.8285C36.3332 67.7455 44.4845 68.8435 51.625 66.4041L29.9434 62.8285Z" fill="url(#paint0_linear_1900_71728)"/>
<defs>
<linearGradient id="paint0_linear_1900_71728" x1="40.7813" y1="2.71875" x2="-0.735972" y2="15.9595" gradientUnits="userSpaceOnUse">
<stop stop-color="#7C4DFF"/>
<stop offset="0.0001" stop-color="#7C4DFF"/>
<stop offset="1" stop-color="#FB4DFF"/>
</linearGradient>
</defs>
</svg>
