<svg width="50" height="51" viewBox="0 0 50 51" fill="none" xmlns="http://www.w3.org/2000/svg">
<circle cx="25" cy="25.5" r="25" fill="url(#paint0_linear_1_62235)"/>
<path fill-rule="evenodd" clip-rule="evenodd" d="M43.75 40.9853L35.0577 39.5518C29.068 43.8729 20.7372 43.8047 14.7662 38.8697C13.6278 37.9287 12.6438 36.8676 11.8174 35.7192L3.125 34.2858L8.70271 27.3865C8.29801 23.1059 9.49803 18.6687 12.4023 15.0763C15.3065 11.484 19.3685 9.41227 23.598 8.96185L29.1758 2.0625L32.2942 10.3908C33.5716 10.9812 34.7958 11.7452 35.9342 12.6861C41.9052 17.6211 43.6284 25.8625 40.6316 32.6572L43.75 40.9853ZM38.8402 35.7723C38.6666 36.0114 38.486 36.2472 38.2982 36.4794C38.1104 36.7117 37.9179 36.9376 37.7207 37.1571L39.4665 37.445L38.8402 35.7723ZM28.9101 9.25264L28.2852 7.58354L27.1668 8.96685C27.7509 9.03082 28.3328 9.12599 28.9101 9.25264ZM9.41743 30.9218L8.29913 32.3051L10.0412 32.5924C9.80359 32.0455 9.59559 31.4878 9.41743 30.9218ZM38.1894 34.0344C37.8692 34.5421 37.5161 35.0362 37.13 35.5139C36.7438 35.9915 36.3351 36.4397 35.9068 36.8579L34.317 36.5957C34.9755 36.0364 35.5922 35.4072 36.1564 34.7093C36.7207 34.0113 37.2079 33.2751 37.6191 32.5112L38.1894 34.0344ZM33.0973 12.5356C33.7472 12.9253 34.3764 13.3691 34.9793 13.8673C39.9728 17.9945 41.7008 24.6634 39.8296 30.5153L39.0571 28.4523C39.993 23.5256 38.2946 18.2496 34.1835 14.8517C34.08 14.7661 33.9756 14.6823 33.8704 14.6002L33.0973 12.5356ZM26.002 10.4076C27.1994 10.4586 28.3946 10.6522 29.5611 10.9912L30.132 12.5158C28.4664 11.9018 26.7172 11.6233 24.9811 11.6705L26.002 10.4076ZM10.1361 25.6135C10.1696 22.2409 11.2951 18.8564 13.5705 16.0419C15.8459 13.2274 18.9024 11.4389 22.1647 10.7348L20.7866 12.4394C18.4204 13.2645 16.2444 14.7432 14.544 16.8465C12.8436 18.9498 11.8432 21.4002 11.5141 23.9089L10.1361 25.6135ZM14.056 36.0884L16.2109 36.4438C16.3114 36.5317 16.4134 36.6185 16.517 36.7041C20.6282 40.102 26.0798 40.7354 30.669 38.8281L32.8221 39.1832C27.5223 42.2014 20.7147 41.8156 15.7212 37.6884C15.1183 37.1902 14.5631 36.6549 14.056 36.0884ZM11.8558 32.8916C11.2952 31.8032 10.8698 30.6574 10.5822 29.481L11.6032 28.2182C11.9027 29.9479 12.5205 31.6257 13.4469 33.154L11.8558 32.8916ZM38.6986 27.4947C39.2411 23.1496 37.6977 18.6332 34.2284 15.5564L38.6986 27.4947ZM30.3706 13.153L37.3807 31.8747C36.9447 32.7523 36.4073 33.5954 35.767 34.3874C35.1267 35.1794 34.4164 35.8796 33.6526 36.4862L14.112 33.2637C13.0044 31.5649 12.3053 29.6565 12.0297 27.6906L24.5546 12.1981C26.5148 12.0802 28.5037 12.3934 30.3706 13.153ZM20.1478 13.2296C18.1791 14.062 16.3782 15.3813 14.9334 17.1684C13.4887 18.9555 12.5682 21.0024 12.1529 23.1187L20.1478 13.2296ZM17.2089 36.6084C20.8812 39.4342 25.5658 40.0652 29.6696 38.6633L17.2089 36.6084Z" fill="white"/>
<defs>
<linearGradient id="paint0_linear_1_62235" x1="25" y1="0.5" x2="-4.36674" y2="9.86566" gradientUnits="userSpaceOnUse">
<stop stop-color="#7C4DFF"/>
<stop offset="0.0001" stop-color="#7C4DFF"/>
<stop offset="1" stop-color="#FB4DFF"/>
</linearGradient>
</defs>
</svg>
