<svg width="22" height="22" viewBox="0 0 22 22" fill="none" xmlns="http://www.w3.org/2000/svg">
<path d="M15.474 0.939453L14.4953 0.94743H13.5512H12.8167V2.62612V19.6572V21.3359H15.4727L16.3068 21.3358C19.1364 21.3358 21.4492 18.9652 21.4605 16.1379H21.4608V16.1215C21.4608 16.12 21.4608 16.1185 21.4608 16.117V15.2828L21.4608 14.586V6.99245H21.4621V6.1583C21.4621 3.32173 19.1447 0.939456 16.3081 0.939456L15.474 0.939453ZM5.83206 0.939512C3.00248 0.939512 0.689732 3.31011 0.678357 6.13745H0.678117V6.15381C0.678115 6.15533 0.678058 6.15684 0.678058 6.15836V6.99251L0.678117 7.68934V15.2829H0.676758V16.117C0.676758 18.9536 2.99419 21.3359 5.83076 21.3359H6.6649H10.654V19.6572V2.62611V0.947427H9.91946H8.97535H6.66621V0.939519L5.83206 0.939512ZM5.89697 2.62405V2.62612H6.66615H8.97535V4.0955V19.6572H6.66491H5.9549C3.28199 19.4131 2.46496 17.8525 2.35675 15.717V15.2829V6.99269L3.91637 6.99263C3.91418 7.02245 3.91268 7.05232 3.91188 7.08222C3.91189 7.59204 4.11443 8.08097 4.47493 8.44146C4.83543 8.80195 5.32437 9.00447 5.83419 9.00447C6.344 9.00446 6.83292 8.80193 7.19341 8.44144C7.5539 8.08095 7.75642 7.59203 7.75643 7.08222C7.75593 6.72046 7.65335 6.36618 7.46049 6.06012C7.26763 5.75405 6.99232 5.50856 6.66621 5.35197C6.66621 5.35195 6.66621 5.35199 6.66621 5.35197C6.40677 5.22638 6.12242 5.16075 5.83419 5.15991C5.3403 5.16052 4.8656 5.3512 4.50853 5.69241C4.15146 6.03361 3.93941 6.49916 3.91637 6.99251H2.35675V6.58931C2.45792 4.45405 3.2588 2.88709 5.89697 2.62405ZM16.8758 10.1031C18.0246 10.1031 18.9412 11.0197 18.9412 12.1685C18.9412 13.3173 18.0246 14.2339 16.8758 14.2339C15.727 14.2339 14.8104 13.3173 14.8104 12.1685C14.8104 11.0197 15.727 10.1031 16.8758 10.1031Z" fill="#FF0001"/>
</svg>
