<svg width="22" height="22" viewBox="0 0 22 22" fill="none" xmlns="http://www.w3.org/2000/svg">
<path d="M15.3808 13.6307H14.4592L14.1325 13.3157C15.2758 11.9857 15.9642 10.259 15.9642 8.3807C15.9642 4.19236 12.5692 0.797363 8.38082 0.797363C4.19249 0.797363 0.797485 4.19236 0.797485 8.3807C0.797485 12.569 4.19249 15.964 8.38082 15.964C10.2592 15.964 11.9858 15.2757 13.3158 14.1324L13.6308 14.459V15.3807L19.4642 21.2024L21.2025 19.464L15.3808 13.6307ZM8.38082 13.6307C5.47582 13.6307 3.13082 11.2857 3.13082 8.3807C3.13082 5.4757 5.47582 3.1307 8.38082 3.1307C11.2858 3.1307 13.6308 5.4757 13.6308 8.3807C13.6308 11.2857 11.2858 13.6307 8.38082 13.6307Z" fill="black" fill-opacity="0.56"/>
</svg>
