<svg width="24" height="24" viewBox="0 0 24 24" fill="none" xmlns="http://www.w3.org/2000/svg">
<path d="M13.5664 10.0459C13.5664 10.0459 7.88816 11.6827 6.78322 20.0918C6.78322 20.0918 5.67828 11.6823 0 10.0459C5.67801 8.40948 6.78322 0 6.78322 0C7.88816 8.40948 13.5664 10.0459 13.5664 10.0459ZM14.992 4.37927C14.992 4.37927 14.7338 6.3442 13.4071 6.72657C14.7338 7.10899 14.992 9.07387 14.992 9.07387C15.2503 7.10893 16.577 6.72657 16.577 6.72657C16.577 6.72657 15.2502 6.34414 14.992 4.37927ZM12.5223 15.1728C12.5223 15.1728 12.0369 18.8674 9.54196 19.5866C12.0369 20.3054 12.5223 24 12.5223 24C13.0079 20.3054 15.5026 19.5862 15.5026 19.5862C15.5026 19.5862 13.0079 18.8674 12.5223 15.1728ZM21.6029 12.6057L20.9292 9.05559L20.2555 12.6057L17.8583 13.6035L20.2555 14.6012L20.9292 18.1513L21.6029 14.6012L24 13.6035L21.6029 12.6057Z" fill="white"/>
</svg>
